<svg width="357" height="89" viewBox="0 0 357 89" fill="none" xmlns="http://www.w3.org/2000/svg">
<path d="M126.35 58H101.15V24.8H125.55V30.6H107.9V37.7H124.15V43.55H107.9V52.1H126.35V58ZM150.211 58H143.661V43.1C143.661 39.3 142.561 38.25 139.461 38.25C136.061 38.25 134.411 40.15 134.411 43.9V58H127.911V33.4H134.111V37C135.611 34.25 138.111 32.75 142.061 32.75C146.761 32.75 150.211 35.6 150.211 40.95V58ZM168.658 49.1H175.208C174.508 54.8 169.858 58.65 163.908 58.65C157.208 58.65 152.608 54.2 152.608 45.4C152.608 36.6 157.208 32.75 164.108 32.75C170.508 32.75 174.858 36.4 175.258 42.2H168.708C168.358 39.65 166.508 38.15 164.058 38.15C161.308 38.15 159.058 39.9 159.058 45.25C159.058 50.6 161.308 53.2 163.858 53.2C166.408 53.2 168.408 51.75 168.658 49.1ZM183.63 58H177.13V33.4H183.23V36.35C185.38 33.05 187.88 32.75 190.53 32.75H191.38V39.4C190.78 39.3 190.18 39.25 189.58 39.25C185.58 39.25 183.63 41.25 183.63 45.2V58ZM208.845 58.75V54.75C207.945 56.95 205.245 58.25 202.195 58.25C197.045 58.25 193.195 54.75 193.195 49.35V33.4H199.695V48.4C199.695 51.45 201.095 53 203.845 53C206.795 53 208.845 51.05 208.845 48.4V33.4H215.345V58.65C215.345 65.6 210.345 69.65 204.045 69.65C196.845 69.65 193.195 65.7 193.195 59.35H199.245C199.245 62.25 200.945 64.05 204.345 64.05C206.695 64.05 208.845 62 208.845 58.75ZM229.892 53.1C233.692 53.1 235.492 50.55 235.492 45.5C235.492 41.1 233.192 38.05 229.942 38.05C226.842 38.05 224.442 40.95 224.442 45.1C224.442 50.45 226.292 53.1 229.892 53.1ZM224.692 69.65H218.292V33.4H224.542L224.592 36.4C226.142 33.9 228.442 32.75 231.442 32.75C237.642 32.75 242.092 37.65 242.092 45.95C242.092 53.4 238.342 58.65 231.992 58.65C228.942 58.65 226.542 57.4 224.692 54.8V69.65ZM258.414 48.2V41.8H264.464V48.8C264.464 54 261.464 58.65 254.514 58.65C247.314 58.65 244.464 54.05 244.464 48.75V26.75H250.864V33.4H264.464V38H250.864V48.1C250.864 51.2 251.964 53 254.614 53C257.214 53 258.414 51.25 258.414 48.2ZM276.07 58H269.67V38H266.02V33.4H269.67C269.67 27.4 273.12 24.4 280.12 24.4V29.65C276.82 29.65 276.07 30.55 276.07 33.4H280.27V38H276.07V58ZM304.016 58H297.866V54.55C296.166 57.35 293.616 58.65 290.216 58.65C285.316 58.65 281.866 55 281.866 49.6V33.4H288.366V48.6C288.366 51.7 289.766 53.2 292.516 53.2C295.816 53.2 297.566 50.85 297.566 47.6V33.4H304.016V58ZM329.166 58H322.616V43.1C322.616 39.3 321.516 38.25 318.416 38.25C315.016 38.25 313.366 40.15 313.366 43.9V58H306.866V33.4H313.066V37C314.566 34.25 317.066 32.75 321.016 32.75C325.716 32.75 329.166 35.6 329.166 40.95V58ZM343.663 53.35C346.763 53.35 349.163 50.45 349.163 46.3C349.163 40.95 347.313 38.3 343.713 38.3C339.913 38.3 338.113 40.85 338.113 45.9C338.113 50.3 340.413 53.35 343.663 53.35ZM355.313 58H349.063L349.013 55C347.463 57.5 345.163 58.65 342.163 58.65C335.963 58.65 331.513 53.75 331.513 45.45C331.513 38 335.263 32.75 341.613 32.75C344.663 32.75 347.063 34 348.913 36.6V24.4H355.313V58Z" fill="#00D632"/>
<path d="M0.917122 29.1016C1.02044 28.895 1.12376 28.7056 1.20986 28.4989C1.847 27.0697 2.93185 26.2259 4.51608 26.1226C6.08309 26.0193 7.34014 26.6564 8.09782 28.0168C8.40778 28.5678 8.75217 28.6883 9.32043 28.6883C11.4385 28.6711 13.5565 28.6711 15.7607 28.6711C15.7779 28.2923 15.8123 27.9823 15.8123 27.6724C15.8123 25.4854 15.7951 23.3157 15.8123 21.1288C15.8295 19.7684 16.2773 19.1657 17.5688 18.8558C22.6142 17.6676 27.2119 15.4635 31.6891 12.9149C40.4884 7.88671 49.3395 7.88671 58.1905 12.846C59.6542 13.6726 61.1351 14.4819 62.7365 15.3946C62.771 14.9641 62.8054 14.7058 62.8054 14.4303C62.8054 12.3639 62.8226 10.2975 62.7882 8.23111C62.7882 7.92115 62.5988 7.49065 62.3577 7.35289C60.8768 6.47468 60.1191 5.21763 60.2741 3.51286C60.4291 1.79087 61.4278 0.688796 63.0465 0.154979C63.1154 0.137759 63.1843 0.0516597 63.2359 0C63.8042 0 64.3897 0 64.9579 0C65.1645 0.103319 65.354 0.206639 65.5606 0.292738C67.0071 0.929874 67.8336 2.01473 67.937 3.59896C68.0403 5.16597 67.4031 6.4058 66.0428 7.19791C65.5434 7.49065 65.3884 7.78339 65.3884 8.33443C65.4228 10.8313 65.4056 13.3282 65.3884 15.8251C65.3884 16.3589 65.5089 16.6689 66.06 16.8411C68.0747 17.4782 70.0722 18.1842 72.1042 18.7697C73.7401 19.2518 74.1705 19.7168 74.1705 21.4215C74.1705 25.0894 74.1705 28.7744 74.1705 32.4423C74.1705 32.735 74.1706 33.0278 74.1017 33.3033C73.9467 33.9404 73.5162 34.2848 72.8618 34.2676C72.2075 34.2676 71.777 33.906 71.6392 33.2688C71.5703 32.9589 71.5876 32.6489 71.5876 32.3217C71.5876 28.9122 71.5703 25.4854 71.5876 22.0759C71.5876 21.5421 71.4498 21.2666 70.8815 21.1288C66.0428 19.9062 61.5312 17.857 57.2606 15.2913C52.8523 12.6394 48.0996 11.434 42.9509 11.8645C39.5586 12.1572 36.3729 13.1388 33.4455 14.8608C28.865 17.5643 24.1123 19.8718 18.9119 21.1632C18.292 21.3182 18.3781 21.7315 18.3781 22.1448C18.3781 26.2259 18.3609 30.2898 18.3781 34.3709C18.3953 38.452 18.3264 42.5159 18.4642 46.597C18.6192 51.2464 20.0829 55.5342 22.6142 59.4431C22.7692 59.6841 22.9414 59.908 23.0791 60.1663C23.4407 60.8379 23.2858 61.5267 22.7175 61.9227C22.1493 62.3188 21.3916 62.2327 20.9783 61.5956C20.3239 60.6312 19.6868 59.6325 19.1358 58.5993C16.7766 54.1738 15.7607 49.4211 15.7951 44.4445C15.7951 43.4113 15.7951 42.3954 15.7951 41.2589C14.7103 41.2589 13.7115 41.2072 12.7127 41.2933C12.4717 41.3105 12.2306 41.7066 12.0584 41.9821C11.1285 43.4458 9.37209 44.1346 7.71898 43.6696C6.08309 43.2047 4.89492 41.6721 4.89492 39.9674C4.8777 38.297 5.97977 36.7817 7.59844 36.2651C9.32043 35.6968 11.1974 36.4029 12.1101 38.0215C12.3856 38.5209 12.6955 38.6931 13.2466 38.6759C14.0387 38.6242 14.848 38.6587 15.7262 38.6587C15.7262 36.1962 15.7262 33.8026 15.7262 31.2541C15.2957 31.2541 14.848 31.2541 14.4003 31.2541C12.6267 31.2541 10.8358 31.2369 9.06213 31.2713C8.78661 31.2713 8.39056 31.4607 8.2528 31.6846C7.37458 33.1655 6.11753 33.9232 4.41276 33.7854C2.69077 33.6304 1.5887 32.6317 1.05488 31.013C1.03766 30.9441 0.951562 30.8925 0.899902 30.8236C0.917122 30.2554 0.917122 29.6699 0.917122 29.1016ZM64.0797 2.58298C63.3565 2.6002 62.8054 3.22012 62.8571 3.94336C62.8915 4.63215 63.477 5.16597 64.1658 5.14875C64.889 5.13153 65.4401 4.51161 65.3884 3.78838C65.3367 3.09958 64.7513 2.56576 64.0797 2.58298ZM4.82604 31.2369C5.51483 31.2197 6.06587 30.6686 6.08309 29.9798C6.10031 29.2566 5.49761 28.6883 4.77438 28.7056C4.08558 28.7228 3.53455 29.2738 3.51733 29.9626C3.50011 30.6686 4.08558 31.2541 4.82604 31.2369ZM8.78661 41.2244C9.49263 41.2244 10.0437 40.7078 10.0609 40.0018C10.0953 39.2614 9.54429 38.6931 8.80383 38.6759C8.0806 38.6759 7.4779 39.2786 7.51234 39.9846C7.52956 40.6562 8.09782 41.2072 8.78661 41.2244Z" fill="#00D632"/>
<path d="M89.0829 42.1888C88.9796 42.3955 88.8762 42.5849 88.7901 42.7915C88.153 44.2208 87.0682 45.0646 85.4839 45.1679C83.9169 45.2712 82.6771 44.6341 81.885 43.2737C81.5922 42.7743 81.2995 42.6193 80.7485 42.6193C78.596 42.6538 76.4607 42.6366 74.291 42.6366C74.1532 45.1334 74.0155 47.5442 73.8777 50.0411C74.9626 50.0411 76.0819 50.0755 77.1839 50.0067C77.425 49.9895 77.7005 49.6278 77.8555 49.3695C78.7337 47.9403 80.2146 47.2515 81.9022 47.527C83.4003 47.7681 84.6402 48.9735 84.9846 50.5233C85.3806 52.3658 84.3991 54.2255 82.6599 54.9316C80.9551 55.6204 78.9232 55.0177 77.9933 53.4162C77.6317 52.7963 77.2356 52.6069 76.5812 52.6413C75.6686 52.693 74.7387 52.6069 73.8261 52.6758C73.5505 52.693 73.1373 52.9685 73.0684 53.2096C71.4842 58.8233 68.1952 63.3176 64.0279 67.2954C58.8103 72.272 52.835 76.0087 46.1537 78.695C45.3616 79.005 44.6211 79.005 43.829 78.6778C40.1784 77.1969 36.7 75.4232 33.411 73.2363C33.2216 73.1158 33.0321 73.0124 32.6877 72.8058C32.6877 73.3913 32.6877 73.839 32.6877 74.2867C32.6877 76.1809 32.6705 78.0751 32.705 79.9693C32.705 80.2792 32.8944 80.7097 33.1355 80.8475C34.6164 81.7257 35.374 82.9828 35.2191 84.6875C35.0641 86.4095 34.0826 87.5116 32.4467 88.0454C32.3778 88.0626 32.3261 88.1487 32.2572 88.2004C31.689 88.2004 31.1035 88.2004 30.5353 88.2004C30.3286 88.0971 30.1392 87.9938 29.9326 87.9077C28.5033 87.2705 27.6595 86.1857 27.5562 84.6014C27.4529 83.0344 28.09 81.7946 29.4504 81.0025C29.9498 80.7097 30.1048 80.417 30.1048 79.866C30.0703 77.1108 30.0875 74.3556 30.1048 71.6004C30.1048 71.0494 29.9153 70.7222 29.5193 70.3606C27.935 68.983 26.3853 67.5882 24.8699 66.1417C23.8712 65.2118 23.7678 64.5058 24.405 63.8687C25.0249 63.2488 25.7826 63.3865 26.678 64.3164C31.6545 69.4135 37.4921 73.2363 44.0701 75.9743C44.7244 76.2498 45.2583 76.2498 45.9298 75.9743C53.0761 72.9952 59.3097 68.7075 64.5618 63.0077C69.3833 57.7728 71.6047 51.5565 71.6047 44.4963C71.6047 42.5505 71.5875 40.5874 71.6219 38.6415C71.6391 37.7805 72.2074 37.2295 72.9478 37.2467C73.6539 37.264 74.136 37.815 74.1877 38.6415C74.2049 38.8654 74.1877 39.1065 74.2049 39.3303C74.2049 39.5198 74.2221 39.7264 74.2566 40.0708C74.8765 40.0708 75.462 40.0708 76.0474 40.0708C77.6833 40.0708 79.3192 40.088 80.9551 40.0536C81.2306 40.0536 81.6095 39.8469 81.7472 39.6231C82.6254 38.1422 83.8825 37.3845 85.5873 37.5395C87.3092 37.6944 88.4113 38.6932 88.9451 40.3119C88.9624 40.3808 89.0484 40.4324 89.1001 40.5013C89.0829 41.0351 89.0829 41.6206 89.0829 42.1888ZM85.174 40.0536C84.4852 40.0708 83.9341 40.6218 83.9169 41.3106C83.9169 42.0339 84.5024 42.6021 85.2256 42.5849C85.9144 42.5677 86.4655 42.0166 86.4827 41.3278C86.4999 40.6218 85.9144 40.0364 85.174 40.0536ZM32.6705 84.2743C32.6705 83.5855 32.1195 83.0172 31.4307 83C30.7075 82.9828 30.122 83.5682 30.122 84.2915C30.122 84.9803 30.673 85.5485 31.3618 85.5657C32.0678 85.6002 32.6705 84.9975 32.6705 84.2743ZM81.2134 52.5897C81.9022 52.5897 82.4705 52.0214 82.4877 51.3498C82.5049 50.6438 81.9022 50.0411 81.1962 50.0411C80.4902 50.0411 79.9563 50.5749 79.9391 51.2809C79.9219 52.0214 80.4729 52.5897 81.2134 52.5897Z" fill="#00D632"/>
<path d="M68.9872 36.0411C68.9872 39.2612 69.0561 42.4641 68.97 45.6843C68.815 51.6768 66.6797 56.9116 62.5814 61.3199C57.9148 66.3654 52.4389 70.2398 46.1708 73.0295C45.3443 73.3911 44.621 73.3911 43.7945 73.0295C37.5265 70.2398 32.0505 66.3481 27.3839 61.3199C23.0273 56.6361 20.9781 51.0741 20.9609 44.7372C20.9437 38.2281 20.9437 31.7017 20.9609 25.1926C20.9609 23.7806 21.3914 23.2812 22.7001 22.7646C24.9731 21.8692 27.2117 20.9393 29.4503 20.0094C30.3113 19.6478 31.0346 19.8544 31.3617 20.5432C31.6889 21.2492 31.3789 21.9208 30.5524 22.3513C30.4319 22.4202 30.2941 22.4719 30.1563 22.5407C28.176 23.3673 26.1958 24.1938 24.1983 24.986C23.8022 25.1409 23.5267 25.2787 23.5267 25.8125C23.5611 32.7005 23.4578 39.5884 23.6472 46.4764C23.7678 51.1774 25.5586 55.3446 28.6926 58.8919C33.0665 63.8513 38.2841 67.6569 44.2766 70.4293C44.7932 70.6703 45.2237 70.6531 45.7231 70.4293C51.7845 67.6052 57.0883 63.7652 61.4621 58.6853C64.9233 54.6558 66.4042 49.9031 66.4214 44.6511C66.4214 38.4519 66.4214 32.2528 66.4214 26.0536C66.4214 25.5714 66.4042 25.2098 65.8187 25.0032C61.7548 23.6428 57.9665 21.697 54.2642 19.5617C48.6677 16.3416 42.9163 16.1349 37.0443 18.8385C36.5277 19.0795 36.0455 19.3895 35.5289 19.665C34.754 20.0783 34.0308 19.9233 33.652 19.3034C33.2387 18.6318 33.4626 17.8914 34.2719 17.4264C40.9876 13.5864 47.8584 13.2764 54.6947 16.8926C58.8963 19.114 63.0463 21.4387 67.5924 22.9368C68.6428 23.2812 69.0044 23.9183 69.0044 25.227C69.0044 28.8432 69.0044 32.4594 69.0044 36.0756C69.0044 36.0411 69.0044 36.0411 68.9872 36.0411Z" fill="#00D632"/>
<path d="M38.5942 38.7446C38.5942 37.8664 38.5253 36.9709 38.6114 36.11C38.8353 33.6131 40.144 31.805 42.417 30.8062C44.6556 29.8247 46.8598 30.0658 48.84 31.5122C50.6309 32.821 51.4575 34.6463 51.4575 36.8676C51.4575 37.4875 51.4575 38.1247 51.4575 38.7618C51.7158 38.8135 51.8707 38.8479 52.0429 38.8651C53.851 39.089 54.867 40.1911 54.9014 42.0164C54.9359 44.0311 54.9187 46.0286 54.9187 48.0433C54.9187 49.3693 54.9359 50.678 54.9187 52.0039C54.8842 53.9498 53.7477 55.1724 51.8363 55.1896C47.3075 55.2413 42.7786 55.2413 38.2326 55.1896C36.304 55.1724 35.1502 53.9498 35.133 52.0211C35.0986 48.6977 35.0986 45.3743 35.133 42.0336C35.1502 40.1566 36.1662 39.0718 38.0432 38.8479C38.1637 38.8307 38.3015 38.7963 38.5942 38.7446ZM44.9139 52.6238C47.0664 52.6238 49.2189 52.6066 51.3714 52.6411C52.0602 52.6583 52.3357 52.4172 52.3357 51.694C52.3012 48.5599 52.3185 45.4431 52.3357 42.3091C52.3357 41.6203 52.0774 41.4137 51.423 41.4137C47.1525 41.4309 42.8647 41.4309 38.5942 41.4137C37.9399 41.4137 37.6816 41.6203 37.6816 42.3091C37.6988 45.4431 37.716 48.5599 37.6816 51.694C37.6816 52.4172 37.9399 52.6411 38.6459 52.6411C40.7295 52.6066 42.8131 52.6238 44.9139 52.6238ZM48.8228 38.8479C48.8228 37.9008 48.8917 37.0743 48.8056 36.2477C48.6162 34.2674 46.9459 32.8037 44.9483 32.821C42.9853 32.8382 41.3494 34.2846 41.16 36.2305C41.0911 36.9193 41.0739 37.6081 41.1428 38.2969C41.16 38.5035 41.4872 38.8307 41.6593 38.8307C44.0185 38.8479 46.3776 38.8479 48.8228 38.8479Z" fill="#00D632"/>
<path d="M45.0517 41.8442C46.7565 41.8614 48.289 43.0324 48.7368 44.6683C49.1845 46.3041 48.5301 48.1295 47.032 48.9732C46.4293 49.3176 46.2227 49.6792 46.2915 50.3164C46.3088 50.5058 46.3088 50.7124 46.2743 50.9191C46.1882 51.6768 45.6716 52.1589 45 52.1589C44.3113 52.1589 43.8119 51.6768 43.7258 50.9019C43.7086 50.7297 43.6913 50.5575 43.7086 50.3853C43.8291 49.662 43.5191 49.2832 42.8992 48.9043C41.4183 48.0089 40.7984 46.2008 41.2978 44.5649C41.8144 42.9463 43.3297 41.827 45.0517 41.8442ZM44.9656 47.0102C45.6544 47.0274 46.2227 46.4936 46.2743 45.8048C46.3088 45.0815 45.7577 44.4616 45.0517 44.4444C44.3629 44.4272 43.7947 44.961 43.743 45.6498C43.6913 46.373 44.2424 46.9757 44.9656 47.0102Z" fill="#00D632"/>
</svg>
