<svg width="60" height="60" viewBox="0 0 60 60" fill="none" xmlns="http://www.w3.org/2000/svg">
<rect x="59.5" y="0.5" width="59" height="59" rx="29.5" transform="rotate(90 59.5 0.5)" fill="#1E2329" stroke="#2B3139"/>
<path d="M11.0074 23.5381C11.0519 23.449 11.0964 23.3674 11.1335 23.2784C11.408 22.6626 11.8754 22.2991 12.558 22.2546C13.2331 22.2101 13.7747 22.4846 14.1011 23.0707C14.2347 23.3081 14.3831 23.36 14.6279 23.36C15.5404 23.3526 16.4529 23.3526 17.4026 23.3526C17.41 23.1894 17.4248 23.0558 17.4248 22.9223C17.4248 21.9801 17.4174 21.0453 17.4248 20.1031C17.4323 19.517 17.6251 19.2573 18.1816 19.1238C20.3553 18.6119 22.3362 17.6622 24.2651 16.5642C28.0562 14.3979 31.8696 14.3979 35.6829 16.5346C36.3135 16.8907 36.9516 17.2394 37.6415 17.6326C37.6564 17.4471 37.6712 17.3358 37.6712 17.2171C37.6712 16.3268 37.6786 15.4365 37.6638 14.5463C37.6638 14.4127 37.5822 14.2273 37.4783 14.1679C36.8403 13.7895 36.5139 13.2479 36.5806 12.5135C36.6474 11.7716 37.0777 11.2968 37.7751 11.0668C37.8048 11.0594 37.8344 11.0223 37.8567 11C38.1015 11 38.3538 11 38.5986 11C38.6876 11.0445 38.7692 11.089 38.8582 11.1261C39.4814 11.4006 39.8376 11.868 39.8821 12.5506C39.9266 13.2257 39.6521 13.7599 39.066 14.1011C38.8508 14.2273 38.7841 14.3534 38.7841 14.5908C38.7989 15.6665 38.7915 16.7423 38.7841 17.818C38.7841 18.048 38.836 18.1816 39.0734 18.2558C39.9414 18.5303 40.802 18.8344 41.6775 19.0867C42.3823 19.2944 42.5677 19.4947 42.5677 20.2292C42.5677 21.8094 42.5677 23.3971 42.5677 24.9773C42.5677 25.1035 42.5677 25.2296 42.5381 25.3483C42.4713 25.6228 42.2858 25.7712 42.0039 25.7638C41.722 25.7638 41.5365 25.608 41.4771 25.3335C41.4475 25.1999 41.4549 25.0664 41.4549 24.9254C41.4549 23.4565 41.4475 21.9801 41.4549 20.5111C41.4549 20.2811 41.3955 20.1624 41.1507 20.1031C39.066 19.5763 37.1222 18.6935 35.2823 17.588C33.383 16.4455 31.3354 15.9262 29.1171 16.1117C27.6556 16.2378 26.2831 16.6607 25.0219 17.4026C23.0484 18.5674 21.0008 19.5615 18.7602 20.1179C18.4932 20.1847 18.5303 20.3627 18.5303 20.5408C18.5303 22.2991 18.5228 24.05 18.5303 25.8083C18.5377 27.5666 18.508 29.3174 18.5674 31.0757C18.6341 33.0789 19.2647 34.9262 20.3553 36.6103C20.4221 36.7142 20.4963 36.8106 20.5556 36.9219C20.7114 37.2112 20.6447 37.508 20.3998 37.6786C20.155 37.8493 19.8286 37.8122 19.6505 37.5377C19.3686 37.1222 19.0941 36.6919 18.8567 36.2468C17.8403 34.3401 17.4026 32.2925 17.4174 30.1484C17.4174 29.7032 17.4174 29.2655 17.4174 28.7759C16.95 28.7759 16.5197 28.7536 16.0894 28.7907C15.9856 28.7981 15.8817 28.9688 15.8075 29.0875C15.4069 29.7181 14.6501 30.0148 13.9379 29.8145C13.2331 29.6142 12.7212 28.9539 12.7212 28.2194C12.7138 27.4998 13.1886 26.8469 13.886 26.6244C14.6279 26.3795 15.4365 26.6837 15.8298 27.3811C15.9485 27.5962 16.082 27.6704 16.3194 27.663C16.6607 27.6408 17.0094 27.6556 17.3877 27.6556C17.3877 26.5947 17.3877 25.5634 17.3877 24.4654C17.2023 24.4654 17.0094 24.4654 16.8165 24.4654C16.0523 24.4654 15.2807 24.458 14.5166 24.4729C14.3979 24.4729 14.2273 24.5545 14.1679 24.6509C13.7895 25.2889 13.2479 25.6154 12.5135 25.556C11.7716 25.4893 11.2968 25.059 11.0668 24.3616C11.0594 24.3319 11.0223 24.3096 11 24.28C11.0074 24.0351 11.0074 23.7829 11.0074 23.5381ZM38.2202 12.1128C37.9086 12.1203 37.6712 12.3873 37.6935 12.6989C37.7083 12.9957 37.9606 13.2257 38.2573 13.2183C38.5689 13.2109 38.8063 12.9438 38.7841 12.6322C38.7618 12.3354 38.5096 12.1054 38.2202 12.1128ZM12.6915 24.458C12.9883 24.4506 13.2257 24.2132 13.2331 23.9164C13.2405 23.6048 12.9809 23.36 12.6693 23.3674C12.3725 23.3748 12.1351 23.6123 12.1277 23.909C12.1203 24.2132 12.3725 24.4654 12.6915 24.458ZM14.3979 28.761C14.7021 28.761 14.9395 28.5385 14.9469 28.2343C14.9617 27.9153 14.7243 27.6704 14.4053 27.663C14.0937 27.663 13.834 27.9227 13.8489 28.2269C13.8563 28.5162 14.1011 28.7536 14.3979 28.761Z" fill="#00D632"/>
<path d="M48.9924 29.1765C48.9479 29.2656 48.9034 29.3472 48.8663 29.4362C48.5918 30.052 48.1244 30.4155 47.4419 30.46C46.7667 30.5045 46.2326 30.23 45.8913 29.6439C45.7652 29.4288 45.639 29.362 45.4016 29.362C44.4743 29.3768 43.5543 29.3694 42.6195 29.3694C42.5602 30.4452 42.5008 31.4838 42.4415 32.5596C42.9089 32.5596 43.3911 32.5744 43.8659 32.5447C43.9698 32.5373 44.0885 32.3815 44.1553 32.2702C44.5336 31.6545 45.1716 31.3577 45.8987 31.4764C46.5442 31.5803 47.0783 32.0996 47.2267 32.7673C47.3973 33.5611 46.9745 34.3624 46.2251 34.6666C45.4907 34.9633 44.6152 34.7037 44.2146 34.0137C44.0588 33.7466 43.8882 33.665 43.6062 33.6799C43.213 33.7021 42.8124 33.665 42.4192 33.6947C42.3005 33.7021 42.1225 33.8208 42.0928 33.9247C41.4102 36.3433 39.9932 38.2796 38.1978 39.9934C35.9499 42.1375 33.3755 43.7474 30.4969 44.9048C30.1556 45.0383 29.8366 45.0383 29.4954 44.8973C27.9225 44.2593 26.4239 43.4952 25.0069 42.5529C24.9253 42.501 24.8437 42.4565 24.6953 42.3675C24.6953 42.6197 24.6953 42.8126 24.6953 43.0055C24.6953 43.8216 24.6879 44.6377 24.7027 45.4538C24.7027 45.5873 24.7843 45.7728 24.8882 45.8321C25.5262 46.2105 25.8526 46.7521 25.7859 47.4866C25.7191 48.2285 25.2962 48.7033 24.5914 48.9333C24.5617 48.9407 24.5395 48.9778 24.5098 49C24.265 49 24.0127 49 23.7679 49C23.6789 48.9555 23.5973 48.911 23.5082 48.8739C22.8925 48.5994 22.5289 48.132 22.4844 47.4495C22.4399 46.7743 22.7144 46.2402 23.3005 45.8989C23.5157 45.7728 23.5824 45.6467 23.5824 45.4093C23.5676 44.2222 23.575 43.0352 23.5824 41.8481C23.5824 41.6107 23.5008 41.4698 23.3302 41.314C22.6476 40.7205 21.9799 40.1195 21.3271 39.4963C20.8968 39.0957 20.8522 38.7915 21.1268 38.517C21.3938 38.2499 21.7203 38.3093 22.1061 38.7099C24.2501 40.9059 26.7652 42.5529 29.5992 43.7326C29.8811 43.8513 30.1111 43.8513 30.4005 43.7326C33.4793 42.4491 36.165 40.6018 38.4278 38.1461C40.5051 35.8907 41.4622 33.2125 41.4622 30.1707C41.4622 29.3323 41.4547 28.4866 41.4696 27.6482C41.477 27.2773 41.7218 27.0399 42.0408 27.0473C42.345 27.0547 42.5528 27.2921 42.575 27.6482C42.5824 27.7447 42.575 27.8485 42.5824 27.945C42.5824 28.0266 42.5898 28.1156 42.6047 28.264C42.8718 28.264 43.124 28.264 43.3763 28.264C44.0811 28.264 44.7859 28.2714 45.4907 28.2566C45.6094 28.2566 45.7726 28.1676 45.8319 28.0711C46.2103 27.4331 46.7519 27.1066 47.4864 27.1734C48.2283 27.2402 48.7031 27.6705 48.9331 28.3679C48.9405 28.3975 48.9776 28.4198 48.9998 28.4495C48.9924 28.6795 48.9924 28.9317 48.9924 29.1765ZM47.3083 28.2566C47.0116 28.264 46.7741 28.5014 46.7667 28.7982C46.7667 29.1098 47.019 29.3546 47.3306 29.3472C47.6273 29.3398 47.8647 29.1023 47.8722 28.8056C47.8796 28.5014 47.6273 28.2492 47.3083 28.2566ZM24.6879 47.3085C24.6879 47.0118 24.4505 46.7669 24.1537 46.7595C23.8421 46.7521 23.5899 47.0043 23.5899 47.3159C23.5899 47.6127 23.8273 47.8575 24.124 47.8649C24.4282 47.8798 24.6879 47.6201 24.6879 47.3085ZM45.602 33.6576C45.8987 33.6576 46.1435 33.4128 46.151 33.1234C46.1584 32.8193 45.8987 32.5596 45.5945 32.5596C45.2904 32.5596 45.0604 32.7896 45.0529 33.0938C45.0455 33.4128 45.2829 33.6576 45.602 33.6576Z" fill="#00D632"/>
<path d="M40.3343 26.5279C40.3343 27.9152 40.364 29.2951 40.3269 30.6825C40.2601 33.2643 39.3402 35.5197 37.5744 37.4189C35.5639 39.5927 33.2047 41.2619 30.5042 42.4638C30.148 42.6196 29.8364 42.6196 29.4803 42.4638C26.7798 41.2619 24.4206 39.5853 22.41 37.4189C20.533 35.401 19.6502 33.0046 19.6428 30.2744C19.6354 27.4701 19.6354 24.6583 19.6428 21.8539C19.6428 21.2456 19.8282 21.0304 20.3921 20.8078C21.3714 20.422 22.3359 20.0214 23.3003 19.6208C23.6713 19.465 23.9829 19.554 24.1238 19.8508C24.2648 20.155 24.1313 20.4443 23.7751 20.6298C23.7232 20.6595 23.6639 20.6817 23.6045 20.7114C22.7513 21.0675 21.8981 21.4236 21.0375 21.7649C20.8669 21.8317 20.7482 21.891 20.7482 22.121C20.763 25.0886 20.7185 28.0562 20.8001 31.0238C20.8521 33.0491 21.6236 34.8445 22.9739 36.3728C24.8583 38.5095 27.1063 40.1491 29.6881 41.3436C29.9106 41.4474 30.0961 41.44 30.3113 41.3436C32.9227 40.1268 35.2078 38.4724 37.0922 36.2838C38.5834 34.5478 39.2214 32.5001 39.2289 30.2373C39.2289 27.5665 39.2289 24.8957 39.2289 22.2249C39.2289 22.0171 39.2214 21.8613 38.9692 21.7723C37.2183 21.1862 35.5861 20.3479 33.9911 19.4279C31.5799 18.0406 29.102 17.9515 26.5721 19.1163C26.3495 19.2202 26.1418 19.3537 25.9192 19.4724C25.5854 19.6505 25.2738 19.5837 25.1106 19.3166C24.9325 19.0273 25.0289 18.7083 25.3776 18.508C28.271 16.8535 31.2312 16.72 34.1765 18.278C35.9868 19.235 37.7747 20.2366 39.7334 20.882C40.1859 21.0304 40.3417 21.3049 40.3417 21.8687C40.3417 23.4267 40.3417 24.9847 40.3417 26.5427C40.3417 26.5279 40.3417 26.5279 40.3343 26.5279Z" fill="#00D632"/>
<path d="M27.2401 27.6927C27.2401 27.3143 27.2105 26.9286 27.2476 26.5576C27.344 25.4819 27.9078 24.7029 28.8871 24.2726C29.8516 23.8497 30.8012 23.9535 31.6544 24.5767C32.426 25.1406 32.7821 25.927 32.7821 26.884C32.7821 27.1511 32.7821 27.4256 32.7821 27.7001C32.8934 27.7224 32.9602 27.7372 33.0344 27.7446C33.8133 27.8411 34.2511 28.3159 34.2659 29.1023C34.2807 29.9703 34.2733 30.8309 34.2733 31.699C34.2733 32.2702 34.2807 32.8341 34.2733 33.4053C34.2585 34.2437 33.7688 34.7704 32.9453 34.7778C30.9941 34.8001 29.0429 34.8001 27.0843 34.7778C26.2534 34.7704 25.7563 34.2437 25.7489 33.4127C25.7341 31.9809 25.7341 30.549 25.7489 29.1097C25.7563 28.3011 26.1941 27.8337 27.0027 27.7372C27.0547 27.7298 27.114 27.715 27.2401 27.6927ZM29.9629 33.6724C30.8903 33.6724 31.8176 33.665 32.745 33.6798C33.0418 33.6872 33.1605 33.5834 33.1605 33.2718C33.1456 31.9215 33.1531 30.5787 33.1605 29.2284C33.1605 28.9317 33.0492 28.8426 32.7673 28.8426C30.9274 28.8501 29.08 28.8501 27.2401 28.8426C26.9582 28.8426 26.8469 28.9317 26.8469 29.2284C26.8543 30.5787 26.8618 31.9215 26.8469 33.2718C26.8469 33.5834 26.9582 33.6798 27.2624 33.6798C28.1601 33.665 29.0578 33.6724 29.9629 33.6724ZM31.647 27.7372C31.647 27.3292 31.6767 26.9731 31.6396 26.617C31.558 25.7638 30.8383 25.1332 29.9777 25.1406C29.132 25.148 28.4272 25.7712 28.3456 26.6095C28.3159 26.9063 28.3085 27.2031 28.3381 27.4998C28.3456 27.5888 28.4865 27.7298 28.5607 27.7298C29.5771 27.7372 30.5935 27.7372 31.647 27.7372Z" fill="#00D632"/>
<path d="M30.0222 29.028C30.7566 29.0355 31.4169 29.5399 31.6098 30.2448C31.8027 30.9496 31.5208 31.736 30.8753 32.0995C30.6157 32.2479 30.5266 32.4037 30.5563 32.6782C30.5637 32.7598 30.5637 32.8488 30.5489 32.9378C30.5118 33.2643 30.2892 33.472 29.9999 33.472C29.7031 33.472 29.488 33.2643 29.4509 32.9304C29.4435 32.8562 29.4361 32.782 29.4435 32.7079C29.4954 32.3963 29.3619 32.233 29.0948 32.0698C28.4568 31.684 28.1897 30.905 28.4048 30.2002C28.6274 29.5029 29.2803 29.0206 30.0222 29.028ZM29.9851 31.2537C30.2818 31.2612 30.5266 31.0312 30.5489 30.7344C30.5637 30.4228 30.3263 30.1557 30.0222 30.1483C29.7254 30.1409 29.4806 30.3709 29.4583 30.6676C29.4361 30.9792 29.6735 31.2389 29.9851 31.2537Z" fill="#00D632"/>
</svg>
