<svg width="70" height="69" viewBox="0 0 70 69" fill="none" xmlns="http://www.w3.org/2000/svg">
<path d="M0.913218 22.5026C0.993109 22.3429 1.073 22.1964 1.13958 22.0366C1.63224 20.9314 2.47109 20.279 3.69609 20.1991C4.90777 20.1192 5.87978 20.6119 6.46564 21.6638C6.70532 22.0899 6.97162 22.1831 7.41102 22.1831C9.04879 22.1698 10.6866 22.1698 12.3909 22.1698C12.4042 21.8768 12.4308 21.6372 12.4308 21.3975C12.4308 19.7065 12.4175 18.0287 12.4308 16.3377C12.4442 15.2858 12.7903 14.8198 13.789 14.5801C17.6903 13.6614 21.2455 11.957 24.7074 9.98638C31.5115 6.09835 38.3555 6.09835 45.1995 9.93312C46.3313 10.5722 47.4764 11.1981 48.7147 11.9038C48.7413 11.5709 48.7679 11.3712 48.7679 11.1581C48.7679 9.56029 48.7813 7.96247 48.7546 6.36465C48.7546 6.12498 48.6082 5.7921 48.4217 5.68558C47.2766 5.0065 46.6908 4.0345 46.8106 2.71629C46.9305 1.38478 47.7027 0.532607 48.9544 0.119837C49.0076 0.106521 49.0609 0.0399455 49.1008 0C49.5402 0 49.9929 0 50.4323 0C50.5921 0.079891 50.7386 0.159782 50.8984 0.226358C52.0168 0.719019 52.656 1.55787 52.7359 2.78287C52.8158 3.99455 52.3231 4.95324 51.2712 5.56574C50.8851 5.7921 50.7652 6.01846 50.7652 6.44454C50.7918 8.37524 50.7785 10.3059 50.7652 12.2366C50.7652 12.6494 50.8584 12.8891 51.2845 13.0222C52.8424 13.5149 54.3869 14.0608 55.9581 14.5135C57.2231 14.8864 57.556 15.2459 57.556 16.5641C57.556 19.4002 57.556 22.2497 57.556 25.0858C57.556 25.3121 57.556 25.5385 57.5027 25.7515C57.3829 26.2442 57.05 26.5105 56.544 26.4972C56.038 26.4972 55.7051 26.2176 55.5986 25.7249C55.5454 25.4852 55.5587 25.2456 55.5587 24.9926C55.5587 22.3562 55.5454 19.7065 55.5587 17.07C55.5587 16.6573 55.4522 16.4442 55.0128 16.3377C51.2712 15.3923 47.7826 13.8078 44.4805 11.8239C41.0718 9.77334 37.3968 8.84127 33.4156 9.17415C30.7925 9.40051 28.3292 10.1595 26.0656 11.491C22.5237 13.5815 18.8488 15.3657 14.8276 16.3643C14.3482 16.4842 14.4148 16.8037 14.4148 17.1233C14.4148 20.279 14.4015 23.4214 14.4148 26.5771C14.4281 29.7328 14.3749 32.8752 14.4814 36.0309C14.6012 39.6259 15.733 42.9414 17.6903 45.964C17.8102 46.1504 17.9433 46.3235 18.0498 46.5232C18.3295 47.0425 18.2096 47.5751 17.7702 47.8814C17.3308 48.1876 16.745 48.121 16.4254 47.6284C15.9194 46.8827 15.4268 46.1104 15.0007 45.3115C13.1765 41.8895 12.3909 38.2145 12.4175 34.3665C12.4175 33.5675 12.4175 32.782 12.4175 31.9032C11.5787 31.9032 10.8064 31.8632 10.0341 31.9298C9.8477 31.9431 9.66128 32.2493 9.52813 32.4624C8.80911 33.5942 7.45097 34.1268 6.17271 33.7673C4.90777 33.4078 3.98902 32.2227 3.98902 30.9045C3.97571 29.6129 4.82788 28.4412 6.0795 28.0418C7.41102 27.6024 8.86237 28.1483 9.56808 29.3999C9.78112 29.786 10.0208 29.9192 10.4469 29.9059C11.0594 29.8659 11.6852 29.8926 12.3643 29.8926C12.3643 27.9885 12.3643 26.1377 12.3643 24.167C12.0314 24.167 11.6852 24.167 11.339 24.167C9.96753 24.167 8.58276 24.1537 7.21129 24.1804C6.99825 24.1804 6.692 24.3268 6.58548 24.4999C5.90641 25.645 4.9344 26.2309 3.6162 26.1244C2.28468 26.0045 1.43251 25.2322 1.01974 23.9806C1.00642 23.9274 0.939848 23.8874 0.899902 23.8342C0.913218 23.3948 0.913218 22.942 0.913218 22.5026ZM49.7533 1.99728C49.194 2.01059 48.7679 2.48994 48.8079 3.04917C48.8345 3.58178 49.2872 3.99455 49.8198 3.98124C50.3791 3.96792 50.8052 3.48857 50.7652 2.92934C50.7253 2.39673 50.2726 1.98396 49.7533 1.99728ZM3.93576 24.1537C4.46837 24.1404 4.89445 23.7143 4.90777 23.1817C4.92108 22.6225 4.45505 22.1831 3.89582 22.1964C3.36321 22.2097 2.93712 22.6358 2.92381 23.1684C2.91049 23.7143 3.36321 24.167 3.93576 24.1537ZM6.99825 31.8765C7.54417 31.8765 7.97026 31.4771 7.98357 30.9311C8.0102 30.3586 7.58412 29.9192 7.01157 29.9059C6.45233 29.9059 5.9863 30.3719 6.01293 30.9178C6.02624 31.4371 6.46564 31.8632 6.99825 31.8765Z" fill="#00D632"/>
<path d="M69.0869 32.6223C69.007 32.7821 68.9271 32.9285 68.8605 33.0883C68.3679 34.1935 67.529 34.8459 66.304 34.9258C65.0923 35.0057 64.1336 34.513 63.5211 33.4612C63.2948 33.075 63.0684 32.9552 62.6423 32.9552C60.9779 32.9818 59.3269 32.9685 57.6492 32.9685C57.5426 34.8992 57.4361 36.7633 57.3296 38.694C58.1684 38.694 59.0339 38.7206 59.8861 38.6674C60.0725 38.6541 60.2856 38.3745 60.4054 38.1747C61.0845 37.0696 62.2296 36.537 63.5345 36.75C64.6929 36.9364 65.6516 37.8685 65.9179 39.0668C66.2241 40.4916 65.4652 41.9296 64.1203 42.4755C62.8021 43.0081 61.2309 42.5421 60.5119 41.3038C60.2323 40.8244 59.926 40.678 59.4201 40.7046C58.7144 40.7446 57.9953 40.678 57.2896 40.7312C57.0766 40.7445 56.757 40.9576 56.7038 41.144C55.4788 45.4848 52.9356 48.96 49.7133 52.0358C45.6788 55.8839 41.0584 58.7733 35.8922 60.8505C35.2797 61.0901 34.7071 61.0901 34.0946 60.8371C31.2718 59.692 28.5821 58.3206 26.0389 56.6295C25.8925 56.5363 25.746 56.4565 25.4797 56.2967C25.4797 56.7494 25.4797 57.0956 25.4797 57.4418C25.4797 58.9064 25.4664 60.3711 25.493 61.8358C25.493 62.0755 25.6395 62.4083 25.8259 62.5149C26.971 63.1939 27.5569 64.1659 27.437 65.4841C27.3172 66.8157 26.5582 67.6678 25.2933 68.0806C25.24 68.0939 25.2001 68.1605 25.1468 68.2004C24.7074 68.2004 24.2547 68.2004 23.8153 68.2004C23.6555 68.1205 23.5091 68.0407 23.3493 67.9741C22.2441 67.4814 21.5917 66.6426 21.5118 65.4176C21.4319 64.2059 21.9245 63.2472 22.9764 62.6347C23.3626 62.4083 23.4824 62.182 23.4824 61.7559C23.4558 59.6255 23.4691 57.495 23.4824 55.3646C23.4824 54.9385 23.336 54.6855 23.0297 54.4059C21.8047 53.3407 20.6063 52.2622 19.4346 51.1437C18.6623 50.4247 18.5824 49.8788 19.0751 49.3861C19.5544 48.9067 20.1403 49.0133 20.8327 49.7323C24.6808 53.6736 29.1946 56.6296 34.281 58.7467C34.787 58.9597 35.1998 58.9597 35.7191 58.7467C41.2449 56.4431 46.065 53.1277 50.1261 48.7203C53.8543 44.6725 55.572 39.8657 55.572 34.4065C55.572 32.9019 55.5587 31.384 55.5853 29.8794C55.5986 29.2136 56.038 28.7875 56.6106 28.8008C57.1565 28.8142 57.5293 29.2402 57.5693 29.8794C57.5826 30.0525 57.5693 30.2389 57.5826 30.412C57.5826 30.5584 57.5959 30.7182 57.6225 30.9845C58.1019 30.9845 58.5546 30.9845 59.0073 30.9845C60.2722 30.9845 61.5372 30.9978 62.8021 30.9712C63.0152 30.9712 63.3081 30.8114 63.4146 30.6383C64.0937 29.4932 65.0657 28.9074 66.3839 29.0272C67.7154 29.147 68.5676 29.9193 68.9804 31.1709C68.9937 31.2242 69.0602 31.2641 69.1002 31.3174C69.0869 31.7302 69.0869 32.1829 69.0869 32.6223ZM66.0643 30.9712C65.5317 30.9845 65.1056 31.4106 65.0923 31.9432C65.0923 32.5025 65.545 32.9419 66.1043 32.9285C66.6369 32.9152 67.063 32.4891 67.0763 31.9565C67.0896 31.4106 66.6369 30.9579 66.0643 30.9712ZM25.4664 65.1646C25.4664 64.632 25.0403 64.1926 24.5077 64.1793C23.9485 64.1659 23.4957 64.6187 23.4957 65.1779C23.4957 65.7105 23.9218 66.1499 24.4544 66.1632C25.0004 66.1898 25.4664 65.7238 25.4664 65.1646ZM63.0018 40.6647C63.5345 40.6647 63.9739 40.2253 63.9872 39.706C64.0005 39.16 63.5345 38.694 62.9885 38.694C62.4426 38.694 62.0298 39.1068 62.0165 39.6527C62.0032 40.2253 62.4293 40.6647 63.0018 40.6647Z" fill="#00D632"/>
<path d="M53.5479 27.8687C53.5479 30.3586 53.6011 32.8352 53.5345 35.3252C53.4147 39.9588 51.7636 44.0066 48.5946 47.4153C44.9862 51.3167 40.752 54.3126 35.9053 56.4696C35.2661 56.7493 34.7069 56.7493 34.0678 56.4696C29.221 54.3126 24.9868 51.3034 21.3784 47.4153C18.0097 43.7936 16.4252 39.4928 16.4118 34.5928C16.3985 29.5597 16.3985 24.5132 16.4118 19.4801C16.4118 18.3883 16.7447 18.0021 17.7567 17.6027C19.5143 16.9103 21.2452 16.1913 22.9762 15.4722C23.642 15.1926 24.2012 15.3524 24.4542 15.885C24.7072 16.4309 24.4675 16.9502 23.8284 17.2831C23.7352 17.3364 23.6287 17.3763 23.5221 17.4296C21.9909 18.0687 20.4597 18.7078 18.9151 19.3203C18.6088 19.4402 18.3958 19.5467 18.3958 19.9594C18.4224 25.2855 18.3425 30.6116 18.489 35.9377C18.5822 39.5727 19.967 42.795 22.3904 45.5379C25.7724 49.3727 29.8069 52.3153 34.4406 54.4591C34.84 54.6455 35.1729 54.6322 35.5591 54.4591C40.246 52.2754 44.3471 49.3061 47.7291 45.3781C50.4055 42.2624 51.5506 38.5874 51.5639 34.5262C51.5639 29.7328 51.5639 24.9393 51.5639 20.1459C51.5639 19.773 51.5506 19.4934 51.0979 19.3336C47.9555 18.2817 45.0261 16.7771 42.1634 15.126C37.836 12.6361 33.3887 12.4763 28.8482 14.5668C28.4488 14.7532 28.0759 14.9929 27.6765 15.2059C27.0773 15.5255 26.5181 15.4057 26.2251 14.9263C25.9056 14.407 26.0787 13.8345 26.7045 13.475C31.8974 10.5057 37.2101 10.266 42.4963 13.0622C45.7452 14.7798 48.9541 16.5774 52.4693 17.7358C53.2816 18.0021 53.5612 18.4948 53.5612 19.5067C53.5612 22.3029 53.5612 25.0991 53.5612 27.8953C53.5612 27.8687 53.5612 27.8687 53.5479 27.8687Z" fill="#00D632"/>
<path d="M30.0467 29.9589C30.0467 29.2799 29.9934 28.5875 30.06 27.9217C30.2331 25.991 31.245 24.5929 33.0026 23.8206C34.7336 23.0617 36.4379 23.2481 37.9692 24.3666C39.354 25.3785 39.9931 26.7899 39.9931 28.5076C39.9931 28.9869 39.9931 29.4796 39.9931 29.9723C40.1928 30.0122 40.3127 30.0388 40.4458 30.0521C41.8439 30.2252 42.6295 31.0774 42.6561 32.4888C42.6828 34.0467 42.6694 35.5913 42.6694 37.1491C42.6694 38.1744 42.6828 39.1863 42.6694 40.2116C42.6428 41.7162 41.764 42.6616 40.286 42.6749C36.7841 42.7149 33.2823 42.7149 29.767 42.6749C28.2757 42.6616 27.3836 41.7162 27.3703 40.2249C27.3437 37.6551 27.3437 35.0853 27.3703 32.5021C27.3836 31.0508 28.1692 30.2119 29.6206 30.0388C29.7138 30.0255 29.8203 29.9989 30.0467 29.9589ZM34.9333 40.691C36.5977 40.691 38.2621 40.6776 39.9265 40.7043C40.4591 40.7176 40.6722 40.5312 40.6722 39.9719C40.6455 37.5486 40.6589 35.1385 40.6722 32.7152C40.6722 32.1826 40.4724 32.0228 39.9665 32.0228C36.6643 32.0361 33.3488 32.0361 30.0467 32.0228C29.5407 32.0228 29.341 32.1826 29.341 32.7152C29.3543 35.1385 29.3676 37.5486 29.341 39.9719C29.341 40.5312 29.5407 40.7043 30.0866 40.7043C31.6977 40.6776 33.3089 40.691 34.9333 40.691ZM37.9559 30.0388C37.9559 29.3065 38.0091 28.6674 37.9426 28.0282C37.7961 26.497 36.5045 25.3652 34.96 25.3785C33.442 25.3918 32.1771 26.5103 32.0306 28.0149C31.9774 28.5475 31.9641 29.0801 32.0173 29.6127C32.0306 29.7725 32.2836 30.0255 32.4168 30.0255C34.2409 30.0388 36.0651 30.0388 37.9559 30.0388Z" fill="#00D632"/>
<path d="M35.0401 32.3559C36.3583 32.3692 37.5433 33.2746 37.8895 34.5396C38.2357 35.8045 37.7297 37.2159 36.5713 37.8683C36.1053 38.1346 35.9455 38.4143 35.9988 38.9069C36.0121 39.0534 36.0121 39.2132 35.9855 39.373C35.9189 39.9588 35.5194 40.3317 35.0001 40.3317C34.4675 40.3317 34.0814 39.9588 34.0148 39.3596C34.0015 39.2265 33.9882 39.0933 34.0015 38.9602C34.0947 38.401 33.855 38.108 33.3757 37.8151C32.2306 37.1227 31.7512 35.7246 32.1374 34.4597C32.5368 33.208 33.7086 32.3425 35.0401 32.3559ZM34.9735 36.3504C35.5061 36.3637 35.9455 35.951 35.9855 35.4184C36.0121 34.8591 35.586 34.3798 35.0401 34.3665C34.5075 34.3531 34.0681 34.7659 34.0281 35.2985C33.9882 35.8578 34.4143 36.3238 34.9735 36.3504Z" fill="#00D632"/>
</svg>
